<svg width="15" height="14" viewBox="0 0 15 14" fill="none" xmlns="http://www.w3.org/2000/svg">
<path d="M5.54005 8.16665L4.34422 6.97665M9.44838 8.74998L8.01339 7.31498M1.82422 12.6583C1.82422 12.6583 7.58172 10.6166 9.25005 8.94831C9.49404 8.70471 9.68765 8.41544 9.81984 8.09701C9.95203 7.77858 10.0202 7.43723 10.0205 7.09246C10.0208 6.74768 9.95311 6.40623 9.82142 6.08759C9.68973 5.76896 9.49657 5.47938 9.25297 5.2354C9.00937 4.99141 8.72009 4.79779 8.40167 4.6656C8.08324 4.53341 7.74189 4.46524 7.39711 4.46497C7.05234 4.4647 6.71088 4.53234 6.39225 4.66403C6.07361 4.79572 5.78404 4.98888 5.54005 5.23248C3.86589 6.90665 1.82422 12.6583 1.82422 12.6583Z" stroke="#2563EB" stroke-linecap="round" stroke-linejoin="round"/>
<path d="M13.3333 5.25004C13.3333 5.25004 12.5575 4.08337 11.2917 4.08337C10.335 4.08337 9.25 5.25004 9.25 5.25004C9.25 5.25004 10.0258 6.41671 11.2917 6.41671C12.5575 6.41671 13.3333 5.25004 13.3333 5.25004Z" stroke="#2563EB" stroke-linecap="round" stroke-linejoin="round"/>
<path d="M9.24992 1.16663C9.24992 1.16663 8.08325 1.94246 8.08325 3.20829C8.08325 4.47413 9.24992 5.24996 9.24992 5.24996C9.24992 5.24996 10.4166 4.17663 10.4166 3.20829C10.4166 1.94246 9.24992 1.16663 9.24992 1.16663Z" stroke="#2563EB" stroke-linecap="round" stroke-linejoin="round"/>
</svg>
