<svg width="14" height="14" viewBox="0 0 14 14" fill="none" xmlns="http://www.w3.org/2000/svg">
<path d="M8.46533 2.1C8.57471 2.40625 8.81533 2.625 9.09971 2.8C9.66846 3.10625 10.0403 3.82812 10.0403 4.65937C10.0403 4.92187 9.99658 5.1625 9.93096 5.40313C9.84346 5.70938 9.88721 6.01562 10.0403 6.3C10.2372 6.62812 10.3466 7.04375 10.3466 7.48125C10.3466 8.59688 9.64658 9.51562 8.74971 9.51562C8.70596 9.51562 8.53096 10.9375 8.42158 11.9656C8.35596 12.5344 7.87471 12.9719 7.28408 12.9719H6.71533C6.14658 12.9719 5.64346 12.5344 5.57783 11.9656C5.46846 10.9375 5.29346 9.51562 5.24971 9.51562C4.37471 9.51562 3.65283 8.59688 3.65283 7.48125C3.65283 7.04375 3.76221 6.62812 3.95908 6.3C4.11221 6.0375 4.15596 5.70938 4.06846 5.40313C4.00283 5.18438 3.95908 4.92187 3.95908 4.68125C3.95908 3.85 4.35283 3.12812 4.92158 2.82187C5.22783 2.625 5.46846 2.40625 5.55596 2.1C5.81846 1.37813 6.36533 0.875 7.02158 0.875C7.65596 0.875 8.22471 1.37813 8.46533 2.1Z" stroke="#16A34A" stroke-width="0.8" stroke-miterlimit="10" stroke-linecap="round" stroke-linejoin="round"/>
<path d="M9.01221 2.73443C9.07783 2.71256 9.12158 2.69068 9.18721 2.69068C9.49346 2.62506 9.79971 2.49381 9.99658 2.25318C10.456 1.66256 11.156 1.37818 11.7685 1.59693C12.381 1.81568 12.7528 2.47193 12.731 3.21568C12.731 3.54381 12.8841 3.82818 13.081 4.06881C13.4966 4.55006 13.6278 5.35943 13.3653 6.14693C13.2778 6.38756 13.1685 6.60631 13.0153 6.80318C12.8403 7.04381 12.7747 7.37193 12.8185 7.67818C12.8841 8.05006 12.8622 8.48756 12.7091 8.90318C12.3372 9.97506 11.3528 10.5876 10.5435 10.3032C10.4997 10.3032 9.86533 11.5719 9.42783 12.4907C9.16533 13.0157 8.57471 13.2563 8.02783 13.0594L7.59033 12.9063" stroke="#16A34A" stroke-width="0.8" stroke-miterlimit="10" stroke-linecap="round" stroke-linejoin="round"/>
<path d="M5.00915 2.73443C4.94352 2.71256 4.8779 2.69068 4.81227 2.69068C4.50602 2.62506 4.19977 2.49381 4.0029 2.25318C3.54352 1.66256 2.84352 1.37818 2.23102 1.59693C1.61852 1.81568 1.26852 2.47193 1.26852 3.21568C1.26852 3.54381 1.1154 3.82818 0.918522 4.06881C0.502897 4.55006 0.371647 5.35943 0.634147 6.14693C0.721647 6.38756 0.831022 6.60631 0.984147 6.80318C1.15915 7.04381 1.24665 7.37193 1.18102 7.67818C1.1154 8.05006 1.15915 8.48756 1.2904 8.90318C1.66227 9.97506 2.64665 10.5876 3.45602 10.3032C3.49977 10.3032 4.13415 11.5719 4.57165 12.4907C4.83415 13.0157 5.42477 13.2563 5.97165 13.0594L6.38727 12.9063" stroke="#16A34A" stroke-width="0.8" stroke-miterlimit="10" stroke-linecap="round" stroke-linejoin="round"/>
<path d="M7.02189 11.5063C6.97814 11.4625 7.02189 3.12817 7.02189 3.12817" stroke="#16A34A" stroke-width="0.4375" stroke-miterlimit="10" stroke-linecap="round" stroke-linejoin="round"/>
<path d="M8.50938 4.06873C8.50938 4.06873 7.02188 5.27185 7 7.08748" stroke="#16A34A" stroke-width="0.4375" stroke-miterlimit="10" stroke-linecap="round" stroke-linejoin="round"/>
<path d="M5.49023 5.40308C5.49023 5.40308 6.97773 6.6062 6.99961 8.42183" stroke="#16A34A" stroke-width="0.4375" stroke-miterlimit="10" stroke-linecap="round" stroke-linejoin="round"/>
</svg>
