<svg width="14" height="14" viewBox="0 0 14 14" fill="none" xmlns="http://www.w3.org/2000/svg">
<path d="M8.73555 3.47634C8.81598 3.47634 8.89563 3.4605 8.96994 3.42972C9.04425 3.39894 9.11177 3.35382 9.16865 3.29695C9.22553 3.24007 9.27064 3.17255 9.30142 3.09824C9.3322 3.02392 9.34805 2.94428 9.34805 2.86384C9.34805 2.78341 9.3322 2.70376 9.30142 2.62945C9.27064 2.55514 9.22553 2.48762 9.16865 2.43074C9.11177 2.37386 9.04425 2.32875 8.96994 2.29797C8.89563 2.26719 8.81598 2.25134 8.73555 2.25134C8.5731 2.25134 8.41731 2.31587 8.30244 2.43074C8.18758 2.54561 8.12305 2.7014 8.12305 2.86384C8.12305 3.02629 8.18758 3.18208 8.30244 3.29695C8.41731 3.41181 8.5731 3.47634 8.73555 3.47634ZM8.89305 5.90447C8.89305 6.11681 8.8087 6.32045 8.65855 6.4706C8.5084 6.62074 8.30476 6.70509 8.09242 6.70509C7.88008 6.70509 7.67644 6.62074 7.52629 6.4706C7.37615 6.32045 7.2918 6.11681 7.2918 5.90447C7.2918 5.69213 7.37615 5.48849 7.52629 5.33834C7.67644 5.18819 7.88008 5.10384 8.09242 5.10384C8.30476 5.10384 8.5084 5.18819 8.65855 5.33834C8.8087 5.48849 8.89305 5.69213 8.89305 5.90447ZM5.10867 8.31509C5.10867 8.51003 5.03123 8.69698 4.8934 8.83482C4.75556 8.97266 4.56861 9.05009 4.37367 9.05009C4.17874 9.05009 3.99179 8.97266 3.85395 8.83482C3.71611 8.69698 3.63867 8.51003 3.63867 8.31509C3.63867 8.12016 3.71611 7.93321 3.85395 7.79537C3.99179 7.65753 4.17874 7.58009 4.37367 7.58009C4.56861 7.58009 4.75556 7.65753 4.8934 7.79537C5.03123 7.93321 5.10867 8.12016 5.10867 8.31509ZM4.9468 10.9532C5.08139 10.9532 5.21048 10.8997 5.30565 10.8046C5.40083 10.7094 5.4543 10.5803 5.4543 10.4457C5.4543 10.3111 5.40083 10.182 5.30565 10.0869C5.21048 9.99169 5.08139 9.93822 4.9468 9.93822C4.8122 9.93822 4.68311 9.99169 4.58794 10.0869C4.49277 10.182 4.4393 10.3111 4.4393 10.4457C4.4393 10.5803 4.49277 10.7094 4.58794 10.8046C4.68311 10.8997 4.8122 10.9532 4.9468 10.9532ZM11.2249 6.41197C11.2249 6.54657 11.1715 6.67565 11.0763 6.77082C10.9811 6.866 10.852 6.91947 10.7174 6.91947C10.5828 6.91947 10.4537 6.866 10.3586 6.77082C10.2634 6.67565 10.2099 6.54657 10.2099 6.41197C10.2099 6.27737 10.2634 6.14829 10.3586 6.05311C10.4537 5.95794 10.5828 5.90447 10.7174 5.90447C10.852 5.90447 10.9811 5.95794 11.0763 6.05311C11.1715 6.14829 11.2249 6.27737 11.2249 6.41197Z" fill="#CA8A04"/>
<path d="M10.3618 0.884199C9.37882 0.421244 8.26548 0.314428 7.21242 0.582043C6.15936 0.849658 5.2321 1.47505 4.58942 2.35114L2.29692 5.47489C0.405605 8.05089 1.33967 11.7136 4.23067 13.0729C6.78304 14.2743 9.81842 13.1631 11.0005 10.6076C11.3534 9.8461 11.7053 9.08412 12.0562 8.3217L12.6237 7.08926C13.6999 4.75301 12.6915 1.98364 10.3618 0.884199ZM5.2951 2.8687C5.81766 2.15648 6.57151 1.64803 7.42764 1.43039C8.28376 1.21274 9.18892 1.29944 9.98817 1.67564C11.8847 2.57076 12.7046 4.82389 11.8296 6.72307L11.2622 7.95507V7.95595C10.9778 8.57282 10.9712 8.5877 10.2065 10.2397C9.22779 12.3568 6.71523 13.2751 4.60385 12.2811C2.21029 11.1554 1.43767 8.12395 3.0026 5.99245L5.2951 2.8687Z" fill="#CA8A04"/>
</svg>
