<svg width="14" height="14" viewBox="0 0 14 14" fill="none" xmlns="http://www.w3.org/2000/svg">
<g id="Tomato">
<g id="t">
<path id="Vector" d="M7.35602 3.66336C7.33269 3.49419 7.33852 3.28419 7.41436 3.05669C7.62436 2.44419 8.20186 2.20502 8.31852 2.15836C8.54602 2.07669 8.66269 1.82586 8.58102 1.59836C8.49936 1.37086 8.24852 1.25419 8.02102 1.33586C7.84019 1.40002 6.92436 1.77919 6.59186 2.77086C6.48102 3.09752 6.46352 3.40669 6.48686 3.66336C3.91436 3.89669 1.90186 5.82169 1.90186 8.16086C1.90186 10.6517 4.19436 12.6817 7.00602 12.6817C9.81769 12.6817 12.1102 10.6517 12.1102 8.16086C12.1102 5.67002 10.0102 3.82086 7.36186 3.65752L7.35602 3.66336ZM7.00019 4.52086C8.40602 4.52086 9.65436 5.12169 10.4244 6.03169C10.2844 6.03169 10.1444 6.01419 10.0102 5.98502C9.61936 5.89752 9.32186 5.72252 9.11769 5.56502C9.08269 5.53586 9.04769 5.50669 9.00686 5.47752C8.82019 5.33752 8.55186 5.37252 8.40019 5.55336C8.25435 5.74002 8.27769 6.00836 8.45852 6.16002C8.48769 6.18919 8.52269 6.21252 8.55186 6.23586C8.87852 6.53336 8.89019 6.94169 8.89019 6.99419C8.89019 7.32086 8.73269 7.55419 8.61019 7.68836C8.24852 7.58919 8.00352 7.39086 7.88686 7.26836C7.55436 6.93586 7.45519 6.55086 7.42602 6.34669C7.39685 6.13086 7.21019 5.97336 6.99436 5.97336C6.77852 5.97336 6.59186 6.13086 6.56269 6.34669C6.49852 6.81336 6.24769 7.12252 6.10186 7.26836C5.85686 7.51336 5.57686 7.63002 5.37269 7.68836C5.11019 7.39669 5.09852 7.04086 5.09852 6.99419C5.09852 6.59169 5.33769 6.32336 5.45436 6.22419C5.47769 6.20086 5.50686 6.18336 5.53019 6.16002C5.71102 6.00836 5.73436 5.74002 5.58852 5.55336C5.44269 5.36669 5.17436 5.33752 4.98186 5.47752C4.96436 5.48919 4.93519 5.51252 4.89436 5.54752C4.69602 5.70502 4.38686 5.89169 3.98436 5.98502C3.85019 6.01419 3.71019 6.02586 3.57019 6.03169C4.34019 5.11586 5.58269 4.52086 6.99436 4.52086H7.00019ZM7.00019 11.8125C4.66686 11.8125 2.77102 10.1792 2.77102 8.16669C2.77102 7.71169 2.87019 7.28002 3.04519 6.88336C3.41852 6.93586 3.80936 6.93002 4.17686 6.84836C4.19436 6.84836 4.21769 6.83669 4.23519 6.83669C4.23519 6.88919 4.22936 6.94752 4.22936 7.00586C4.22936 7.16336 4.26436 7.98002 4.98769 8.52252C5.06352 8.58086 5.15686 8.61002 5.25019 8.61002C5.27352 8.61002 5.29102 8.61002 5.31436 8.61002C5.62352 8.56336 6.21852 8.41752 6.72602 7.90419C6.80186 7.82836 6.90102 7.71752 7.00019 7.57752C7.07602 7.68836 7.16936 7.79919 7.27436 7.90419C7.49602 8.12586 7.96852 8.51086 8.68602 8.61002C8.80269 8.62752 8.91935 8.59836 9.01269 8.52836C9.14102 8.43502 9.77102 7.91586 9.77102 7.01169C9.77102 6.97669 9.77102 6.91836 9.75935 6.84252C9.77685 6.84252 9.80019 6.85419 9.81769 6.85419C10.1852 6.93586 10.5702 6.94752 10.9494 6.88919C11.1244 7.29169 11.2235 7.72336 11.2235 8.17252C11.2235 10.185 9.32769 11.8184 6.99436 11.8184L7.00019 11.8125Z" fill="#DC2626"/>
</g>
</g>
</svg>
